M48
;GenerationSoftware,Autodesk,EAGLE,9.6.2*%
;CreationDate,2020-11-12T17:36:53Z*%
FMAT,2
ICI,OFF
METRIC,TZ,000.000
T2C0.381
T1C1.016
%
G90
M71
T1
X35560Y29210
X26670Y59690
X19050Y59690
X21590Y59690
X24130Y59690
X38100Y24130
X35560Y24130
X38100Y26670
X35560Y26670
X38100Y29210
T2
X15240Y16510
X15240Y25400
X7620Y46990
X8890Y59690
X10160Y36830
X14992Y26670
X6350Y46990
X6350Y41910
X43180Y5080
X43180Y29210
X21590Y34290
X30480Y34290
X16510Y33020
X8890Y40640
X12700Y39370
X19050Y5080
X26670Y49530
X11430Y39370
X12766Y20386
X11430Y22860
X24130Y20295
X25400Y21590
X7620Y30372
X6350Y26670
X31750Y21590
X34290Y21590
X29210Y20320
X12552Y15240
X17780Y21590
X17780Y19050
X7620Y7620
X12700Y26670
X5080Y53340
X26670Y39370
X15488Y35560
X13970Y34290
X30480Y7620
X30480Y44450
X31750Y29210
X41910Y20320
M30