G04 EAGLE Gerber RS-274X export*
G75*
%MOMM*%
%FSLAX34Y34*%
%LPD*%
%INTop Copper*%
%IPPOS*%
%AMOC8*
5,1,8,0,0,1.08239X$1,22.5*%
G01*
%ADD10R,1.500000X1.300000*%
%ADD11R,0.558800X1.270000*%
%ADD12R,1.270000X0.558800*%
%ADD13C,1.879600*%
%ADD14P,1.649562X8X112.500000*%
%ADD15R,1.400000X1.100000*%
%ADD16R,0.925000X0.300000*%
%ADD17R,0.300000X0.800000*%
%ADD18R,1.930400X5.334000*%
%ADD19R,2.750000X1.000000*%
%ADD20R,2.100000X5.050000*%
%ADD21R,5.050000X5.050000*%
%ADD22C,1.000000*%
%ADD23C,0.203200*%
%ADD24C,0.685800*%
%ADD25C,0.304800*%


D10*
X114300Y503800D03*
X114300Y486800D03*
X76200Y503800D03*
X76200Y486800D03*
X304800Y491100D03*
X304800Y474100D03*
X304800Y397900D03*
X304800Y414900D03*
X152400Y503800D03*
X152400Y486800D03*
D11*
X180400Y373126D03*
X172400Y373126D03*
X164400Y373126D03*
X156400Y373126D03*
X148400Y373126D03*
X140400Y373126D03*
X132400Y373126D03*
X124400Y373126D03*
D12*
X109474Y358200D03*
X109474Y350200D03*
X109474Y342200D03*
X109474Y334200D03*
X109474Y326200D03*
X109474Y318200D03*
X109474Y310200D03*
X109474Y302200D03*
D11*
X124400Y287274D03*
X132400Y287274D03*
X140400Y287274D03*
X148400Y287274D03*
X156400Y287274D03*
X164400Y287274D03*
X172400Y287274D03*
X180400Y287274D03*
D12*
X195326Y302200D03*
X195326Y310200D03*
X195326Y318200D03*
X195326Y326200D03*
X195326Y334200D03*
X195326Y342200D03*
X195326Y350200D03*
X195326Y358200D03*
D13*
X190500Y596900D03*
X215900Y596900D03*
X241300Y596900D03*
X266700Y596900D03*
D14*
X381000Y241300D03*
X355600Y241300D03*
X381000Y266700D03*
X355600Y266700D03*
X381000Y292100D03*
X355600Y292100D03*
D15*
X38100Y485300D03*
X38100Y505300D03*
D16*
X139875Y167800D03*
X139875Y172800D03*
X139875Y177800D03*
X139875Y182800D03*
X139875Y187800D03*
D17*
X132000Y190550D03*
X127000Y190550D03*
X122000Y190550D03*
D16*
X114125Y187800D03*
X114125Y182800D03*
X114125Y177800D03*
X114125Y172800D03*
X114125Y167800D03*
D17*
X122000Y165050D03*
X127000Y165050D03*
X132000Y165050D03*
D18*
X381000Y492760D03*
X381000Y396240D03*
D19*
X409750Y30800D03*
X352250Y30800D03*
X409750Y70800D03*
X352250Y70800D03*
D20*
X25400Y38100D03*
X258400Y38100D03*
D21*
X141900Y38100D03*
D22*
X25400Y622300D03*
X25400Y101600D03*
X406400Y114300D03*
D23*
X122000Y155923D02*
X122000Y165050D01*
X122000Y155923D02*
X125523Y152400D01*
D24*
X125523Y152400D03*
X76200Y76200D03*
D23*
X38100Y38100D01*
X25400Y38100D01*
X258400Y38100D02*
X258400Y144100D01*
X355600Y241300D01*
D24*
X127000Y266700D03*
D23*
X132400Y272100D01*
X132400Y287274D01*
D24*
X50800Y533400D03*
D23*
X50800Y518000D01*
X38100Y505300D01*
X50800Y533400D02*
X84700Y533400D01*
X114300Y503800D01*
X152400Y503800D01*
X156400Y373126D02*
X156400Y357123D01*
X154877Y355600D01*
D24*
X154877Y355600D03*
X139700Y342900D03*
D23*
X134558Y294887D02*
X134558Y289432D01*
X132400Y287274D01*
X139700Y300029D02*
X139700Y342900D01*
X139700Y300029D02*
X134558Y294887D01*
X215900Y567300D02*
X215900Y596900D01*
X215900Y567300D02*
X152400Y503800D01*
D25*
X190500Y50800D02*
X177800Y38100D01*
D24*
X190500Y50800D03*
X304800Y76200D03*
D25*
X304800Y25400D01*
X346850Y25400D01*
X352250Y30800D01*
X177800Y38100D02*
X141900Y38100D01*
D23*
X304800Y444500D02*
X304800Y474100D01*
D24*
X304800Y444500D03*
X317500Y292100D03*
D23*
X355600Y292100D01*
X304800Y414900D02*
X304800Y444500D01*
X132000Y165050D02*
X132000Y127000D01*
X132000Y48000D01*
X141900Y38100D01*
X114125Y167800D02*
X114125Y172800D01*
X114125Y167800D02*
X114125Y144875D01*
X132000Y127000D01*
D24*
X152400Y165100D03*
D23*
X132190Y165050D02*
X132000Y165050D01*
X132190Y165050D02*
X133988Y163252D01*
X150552Y163252D01*
X152400Y165100D01*
D24*
X152400Y254000D03*
D23*
X156400Y258000D01*
X156400Y287274D01*
X114300Y486800D02*
X76200Y486800D01*
X114300Y486800D02*
X152400Y486800D01*
D24*
X76200Y469900D03*
D23*
X76200Y486800D01*
X154242Y294887D02*
X154242Y289432D01*
X156400Y287274D01*
X148400Y300729D02*
X148400Y373126D01*
X148400Y300729D02*
X154242Y294887D01*
X190500Y596900D02*
X88900Y596900D01*
D24*
X88900Y596900D03*
D23*
X76200Y503800D02*
X68748Y496348D01*
X67438Y496348D01*
X63500Y492411D01*
X63500Y406400D02*
X101600Y368300D01*
D24*
X101600Y368300D03*
X149923Y266700D03*
D23*
X149923Y285751D01*
X148400Y287274D01*
X63500Y469900D02*
X63500Y492411D01*
D24*
X63500Y469900D03*
X63500Y419100D03*
D23*
X63500Y406400D01*
X409750Y30800D02*
X411800Y30800D01*
X431800Y50800D01*
D24*
X431800Y50800D03*
X431800Y292100D03*
D23*
X381000Y292100D01*
X330200Y342900D01*
X215900Y342900D02*
X207200Y334200D01*
D24*
X215900Y342900D03*
X304800Y342900D03*
D23*
X330200Y342900D01*
X207200Y334200D02*
X195326Y334200D01*
D24*
X165100Y330200D03*
D23*
X193168Y332042D02*
X195326Y334200D01*
X193168Y332042D02*
X187714Y332042D01*
X185872Y330200D02*
X165100Y330200D01*
X185872Y330200D02*
X187714Y332042D01*
X38100Y457200D02*
X38100Y485300D01*
X38100Y457200D02*
X88900Y406400D01*
D24*
X88900Y406400D03*
D23*
X306460Y396240D02*
X381000Y396240D01*
X306460Y396240D02*
X304800Y397900D01*
X132400Y388300D02*
X132400Y373126D01*
X132400Y388300D02*
X127000Y393700D01*
D24*
X127000Y393700D03*
X266700Y393700D03*
D23*
X303920Y393700D01*
X306460Y396240D01*
X306460Y492760D02*
X381000Y492760D01*
X306460Y492760D02*
X304800Y491100D01*
D24*
X266700Y495300D03*
D23*
X300600Y495300D01*
X304800Y491100D01*
X124400Y373126D02*
X114300Y383226D01*
X114300Y393700D01*
D24*
X114300Y393700D03*
D23*
X63500Y304800D02*
X63500Y279400D01*
X63500Y304800D02*
X68900Y310200D01*
X109474Y310200D01*
X132000Y199520D02*
X132000Y190550D01*
X132000Y199520D02*
X127660Y203860D01*
D24*
X127660Y203860D03*
X114300Y228600D03*
D23*
X63500Y279400D01*
X144650Y203200D02*
X132000Y190550D01*
X241046Y203200D02*
X241300Y202946D01*
D24*
X241300Y202946D03*
X254000Y215900D03*
D23*
X304800Y266700D01*
X355600Y266700D01*
X241046Y203200D02*
X144650Y203200D01*
X127000Y190550D02*
X126548Y191002D01*
X126548Y195813D01*
D24*
X76200Y303723D03*
D23*
X107951Y303723D01*
X109474Y302200D01*
X63500Y266700D02*
X63500Y258861D01*
D24*
X63500Y266700D03*
D23*
X110380Y211980D02*
X126548Y195813D01*
X110380Y211980D02*
X63500Y258861D01*
X110380Y211980D02*
X137872Y211980D01*
X140430Y209423D01*
X272923Y209423D01*
X279400Y215900D01*
X317500Y215900D01*
D24*
X317500Y215900D03*
X342900Y215900D03*
D23*
X355600Y215900D01*
X381000Y241300D01*
X139700Y215900D02*
X114300Y241300D01*
X114300Y277174D01*
X124400Y287274D01*
X177800Y182800D02*
X271700Y182800D01*
X292100Y203200D01*
D24*
X292100Y203200D03*
X419100Y203200D03*
D23*
X419100Y266700D01*
X381000Y266700D01*
X177800Y215900D02*
X139700Y215900D01*
D24*
X177800Y215900D03*
X177800Y190500D03*
D23*
X177800Y182800D01*
X139875Y182800D01*
X195326Y326200D02*
X211900Y326200D01*
X228600Y342900D01*
X228600Y584200D02*
X241300Y596900D01*
X228600Y584200D02*
X228600Y342900D01*
X216600Y318200D02*
X195326Y318200D01*
X241300Y342900D02*
X241300Y571500D01*
X266700Y596900D01*
X241300Y342900D02*
X216600Y318200D01*
X50800Y317500D02*
X50800Y228600D01*
X50800Y317500D02*
X51500Y318200D01*
X109474Y318200D01*
X121811Y190550D02*
X122000Y190550D01*
X121811Y190550D02*
X120013Y192348D01*
X87052Y192348D02*
X50800Y228600D01*
X87052Y192348D02*
X120013Y192348D01*
M02*
