G04 EAGLE Gerber RS-274X export*
G75*
%MOMM*%
%FSLAX34Y34*%
%LPD*%
%INSilkscreen Top*%
%IPPOS*%
%AMOC8*
5,1,8,0,0,1.08239X$1,22.5*%
G01*
%ADD10C,0.101600*%
%ADD11C,0.152400*%
%ADD12C,0.076200*%
%ADD13C,0.127000*%
%ADD14R,1.400000X0.650000*%
%ADD15C,0.400000*%
%ADD16C,0.050800*%
%ADD17C,0.100000*%
%ADD18C,0.200000*%
%ADD19C,0.200000*%


D10*
X136652Y492826D02*
X136652Y490229D01*
X136650Y490130D01*
X136644Y490030D01*
X136635Y489931D01*
X136622Y489833D01*
X136605Y489735D01*
X136584Y489637D01*
X136559Y489541D01*
X136531Y489446D01*
X136499Y489352D01*
X136464Y489259D01*
X136425Y489167D01*
X136382Y489077D01*
X136337Y488989D01*
X136287Y488902D01*
X136235Y488818D01*
X136179Y488735D01*
X136121Y488655D01*
X136059Y488577D01*
X135994Y488502D01*
X135926Y488429D01*
X135856Y488359D01*
X135783Y488291D01*
X135708Y488226D01*
X135630Y488164D01*
X135550Y488106D01*
X135467Y488050D01*
X135383Y487998D01*
X135296Y487948D01*
X135208Y487903D01*
X135118Y487860D01*
X135026Y487821D01*
X134933Y487786D01*
X134839Y487754D01*
X134744Y487726D01*
X134648Y487701D01*
X134550Y487680D01*
X134452Y487663D01*
X134354Y487650D01*
X134255Y487641D01*
X134155Y487635D01*
X134056Y487633D01*
X127564Y487633D01*
X127564Y487632D02*
X127465Y487634D01*
X127365Y487640D01*
X127266Y487649D01*
X127168Y487662D01*
X127070Y487680D01*
X126972Y487700D01*
X126876Y487725D01*
X126780Y487753D01*
X126686Y487785D01*
X126593Y487820D01*
X126502Y487859D01*
X126412Y487902D01*
X126323Y487947D01*
X126237Y487997D01*
X126152Y488049D01*
X126070Y488105D01*
X125990Y488164D01*
X125912Y488225D01*
X125836Y488290D01*
X125763Y488358D01*
X125693Y488428D01*
X125625Y488501D01*
X125560Y488577D01*
X125499Y488655D01*
X125440Y488735D01*
X125384Y488817D01*
X125332Y488902D01*
X125283Y488988D01*
X125237Y489077D01*
X125194Y489167D01*
X125155Y489258D01*
X125120Y489351D01*
X125088Y489445D01*
X125060Y489541D01*
X125035Y489637D01*
X125015Y489735D01*
X124997Y489833D01*
X124984Y489931D01*
X124975Y490030D01*
X124969Y490129D01*
X124967Y490229D01*
X124968Y490229D02*
X124968Y492826D01*
X127564Y497191D02*
X124968Y500436D01*
X136652Y500436D01*
X136652Y497191D02*
X136652Y503682D01*
X98552Y492826D02*
X98552Y490229D01*
X98550Y490130D01*
X98544Y490030D01*
X98535Y489931D01*
X98522Y489833D01*
X98505Y489735D01*
X98484Y489637D01*
X98459Y489541D01*
X98431Y489446D01*
X98399Y489352D01*
X98364Y489259D01*
X98325Y489167D01*
X98282Y489077D01*
X98237Y488989D01*
X98187Y488902D01*
X98135Y488818D01*
X98079Y488735D01*
X98021Y488655D01*
X97959Y488577D01*
X97894Y488502D01*
X97826Y488429D01*
X97756Y488359D01*
X97683Y488291D01*
X97608Y488226D01*
X97530Y488164D01*
X97450Y488106D01*
X97367Y488050D01*
X97283Y487998D01*
X97196Y487948D01*
X97108Y487903D01*
X97018Y487860D01*
X96926Y487821D01*
X96833Y487786D01*
X96739Y487754D01*
X96644Y487726D01*
X96548Y487701D01*
X96450Y487680D01*
X96352Y487663D01*
X96254Y487650D01*
X96155Y487641D01*
X96055Y487635D01*
X95956Y487633D01*
X89464Y487633D01*
X89464Y487632D02*
X89365Y487634D01*
X89265Y487640D01*
X89166Y487649D01*
X89068Y487662D01*
X88970Y487680D01*
X88872Y487700D01*
X88776Y487725D01*
X88680Y487753D01*
X88586Y487785D01*
X88493Y487820D01*
X88402Y487859D01*
X88312Y487902D01*
X88223Y487947D01*
X88137Y487997D01*
X88052Y488049D01*
X87970Y488105D01*
X87890Y488164D01*
X87812Y488225D01*
X87736Y488290D01*
X87663Y488358D01*
X87593Y488428D01*
X87525Y488501D01*
X87460Y488577D01*
X87399Y488655D01*
X87340Y488735D01*
X87284Y488817D01*
X87232Y488902D01*
X87183Y488988D01*
X87137Y489077D01*
X87094Y489167D01*
X87055Y489258D01*
X87020Y489351D01*
X86988Y489445D01*
X86960Y489541D01*
X86935Y489637D01*
X86915Y489735D01*
X86897Y489833D01*
X86884Y489931D01*
X86875Y490030D01*
X86869Y490129D01*
X86867Y490229D01*
X86868Y490229D02*
X86868Y492826D01*
X86868Y500761D02*
X86870Y500868D01*
X86876Y500974D01*
X86886Y501080D01*
X86899Y501186D01*
X86917Y501292D01*
X86938Y501396D01*
X86963Y501500D01*
X86992Y501603D01*
X87024Y501704D01*
X87061Y501804D01*
X87101Y501903D01*
X87144Y502001D01*
X87191Y502097D01*
X87242Y502191D01*
X87296Y502283D01*
X87353Y502373D01*
X87413Y502461D01*
X87477Y502546D01*
X87544Y502629D01*
X87614Y502710D01*
X87686Y502788D01*
X87762Y502864D01*
X87840Y502936D01*
X87921Y503006D01*
X88004Y503073D01*
X88089Y503137D01*
X88177Y503197D01*
X88267Y503254D01*
X88359Y503308D01*
X88453Y503359D01*
X88549Y503406D01*
X88647Y503449D01*
X88746Y503489D01*
X88846Y503526D01*
X88947Y503558D01*
X89050Y503587D01*
X89154Y503612D01*
X89258Y503633D01*
X89364Y503651D01*
X89470Y503664D01*
X89576Y503674D01*
X89682Y503680D01*
X89789Y503682D01*
X86868Y500761D02*
X86870Y500640D01*
X86876Y500519D01*
X86886Y500399D01*
X86899Y500278D01*
X86917Y500159D01*
X86938Y500039D01*
X86963Y499921D01*
X86992Y499804D01*
X87025Y499687D01*
X87061Y499572D01*
X87102Y499458D01*
X87145Y499345D01*
X87193Y499233D01*
X87244Y499124D01*
X87299Y499016D01*
X87357Y498909D01*
X87418Y498805D01*
X87483Y498703D01*
X87551Y498603D01*
X87622Y498505D01*
X87696Y498409D01*
X87773Y498316D01*
X87854Y498226D01*
X87937Y498138D01*
X88023Y498053D01*
X88112Y497970D01*
X88203Y497891D01*
X88297Y497814D01*
X88393Y497741D01*
X88491Y497671D01*
X88592Y497604D01*
X88695Y497540D01*
X88800Y497480D01*
X88907Y497422D01*
X89015Y497369D01*
X89125Y497319D01*
X89237Y497273D01*
X89350Y497230D01*
X89465Y497191D01*
X92061Y502708D02*
X91983Y502787D01*
X91903Y502863D01*
X91820Y502936D01*
X91734Y503006D01*
X91647Y503073D01*
X91556Y503137D01*
X91464Y503197D01*
X91370Y503255D01*
X91273Y503309D01*
X91175Y503359D01*
X91075Y503406D01*
X90974Y503450D01*
X90871Y503490D01*
X90766Y503526D01*
X90661Y503558D01*
X90554Y503587D01*
X90447Y503612D01*
X90338Y503634D01*
X90229Y503651D01*
X90120Y503665D01*
X90010Y503674D01*
X89899Y503680D01*
X89789Y503682D01*
X92061Y502708D02*
X98552Y497191D01*
X98552Y503682D01*
X327152Y480126D02*
X327152Y477529D01*
X327150Y477430D01*
X327144Y477330D01*
X327135Y477231D01*
X327122Y477133D01*
X327105Y477035D01*
X327084Y476937D01*
X327059Y476841D01*
X327031Y476746D01*
X326999Y476652D01*
X326964Y476559D01*
X326925Y476467D01*
X326882Y476377D01*
X326837Y476289D01*
X326787Y476202D01*
X326735Y476118D01*
X326679Y476035D01*
X326621Y475955D01*
X326559Y475877D01*
X326494Y475802D01*
X326426Y475729D01*
X326356Y475659D01*
X326283Y475591D01*
X326208Y475526D01*
X326130Y475464D01*
X326050Y475406D01*
X325967Y475350D01*
X325883Y475298D01*
X325796Y475248D01*
X325708Y475203D01*
X325618Y475160D01*
X325526Y475121D01*
X325433Y475086D01*
X325339Y475054D01*
X325244Y475026D01*
X325148Y475001D01*
X325050Y474980D01*
X324952Y474963D01*
X324854Y474950D01*
X324755Y474941D01*
X324655Y474935D01*
X324556Y474933D01*
X318064Y474933D01*
X318064Y474932D02*
X317965Y474934D01*
X317865Y474940D01*
X317766Y474949D01*
X317668Y474962D01*
X317570Y474980D01*
X317472Y475000D01*
X317376Y475025D01*
X317280Y475053D01*
X317186Y475085D01*
X317093Y475120D01*
X317002Y475159D01*
X316912Y475202D01*
X316823Y475247D01*
X316737Y475297D01*
X316652Y475349D01*
X316570Y475405D01*
X316490Y475464D01*
X316412Y475525D01*
X316336Y475590D01*
X316263Y475658D01*
X316193Y475728D01*
X316125Y475801D01*
X316060Y475877D01*
X315999Y475955D01*
X315940Y476035D01*
X315884Y476117D01*
X315832Y476202D01*
X315783Y476288D01*
X315737Y476377D01*
X315694Y476467D01*
X315655Y476558D01*
X315620Y476651D01*
X315588Y476745D01*
X315560Y476841D01*
X315535Y476937D01*
X315515Y477035D01*
X315497Y477133D01*
X315484Y477231D01*
X315475Y477330D01*
X315469Y477429D01*
X315467Y477529D01*
X315468Y477529D02*
X315468Y480126D01*
X327152Y484491D02*
X327152Y487736D01*
X327150Y487849D01*
X327144Y487962D01*
X327134Y488075D01*
X327120Y488188D01*
X327103Y488300D01*
X327081Y488411D01*
X327056Y488521D01*
X327026Y488631D01*
X326993Y488739D01*
X326956Y488846D01*
X326916Y488952D01*
X326871Y489056D01*
X326823Y489159D01*
X326772Y489260D01*
X326717Y489359D01*
X326659Y489456D01*
X326597Y489551D01*
X326532Y489644D01*
X326464Y489734D01*
X326393Y489822D01*
X326318Y489908D01*
X326241Y489991D01*
X326161Y490071D01*
X326078Y490148D01*
X325992Y490223D01*
X325904Y490294D01*
X325814Y490362D01*
X325721Y490427D01*
X325626Y490489D01*
X325529Y490547D01*
X325430Y490602D01*
X325329Y490653D01*
X325226Y490701D01*
X325122Y490746D01*
X325016Y490786D01*
X324909Y490823D01*
X324801Y490856D01*
X324691Y490886D01*
X324581Y490911D01*
X324470Y490933D01*
X324358Y490950D01*
X324245Y490964D01*
X324132Y490974D01*
X324019Y490980D01*
X323906Y490982D01*
X323793Y490980D01*
X323680Y490974D01*
X323567Y490964D01*
X323454Y490950D01*
X323342Y490933D01*
X323231Y490911D01*
X323121Y490886D01*
X323011Y490856D01*
X322903Y490823D01*
X322796Y490786D01*
X322690Y490746D01*
X322586Y490701D01*
X322483Y490653D01*
X322382Y490602D01*
X322283Y490547D01*
X322186Y490489D01*
X322091Y490427D01*
X321998Y490362D01*
X321908Y490294D01*
X321820Y490223D01*
X321734Y490148D01*
X321651Y490071D01*
X321571Y489991D01*
X321494Y489908D01*
X321419Y489822D01*
X321348Y489734D01*
X321280Y489644D01*
X321215Y489551D01*
X321153Y489456D01*
X321095Y489359D01*
X321040Y489260D01*
X320989Y489159D01*
X320941Y489056D01*
X320896Y488952D01*
X320856Y488846D01*
X320819Y488739D01*
X320786Y488631D01*
X320756Y488521D01*
X320731Y488411D01*
X320709Y488300D01*
X320692Y488188D01*
X320678Y488075D01*
X320668Y487962D01*
X320662Y487849D01*
X320660Y487736D01*
X315468Y488386D02*
X315468Y484491D01*
X315468Y488386D02*
X315470Y488487D01*
X315476Y488587D01*
X315486Y488687D01*
X315499Y488787D01*
X315517Y488886D01*
X315538Y488985D01*
X315563Y489082D01*
X315592Y489179D01*
X315625Y489274D01*
X315661Y489368D01*
X315701Y489460D01*
X315744Y489551D01*
X315791Y489640D01*
X315841Y489727D01*
X315895Y489813D01*
X315952Y489896D01*
X316012Y489976D01*
X316075Y490055D01*
X316142Y490131D01*
X316211Y490204D01*
X316283Y490274D01*
X316357Y490342D01*
X316434Y490407D01*
X316514Y490468D01*
X316596Y490527D01*
X316680Y490582D01*
X316766Y490634D01*
X316854Y490683D01*
X316944Y490728D01*
X317036Y490770D01*
X317129Y490808D01*
X317224Y490842D01*
X317319Y490873D01*
X317416Y490900D01*
X317514Y490923D01*
X317613Y490943D01*
X317713Y490958D01*
X317813Y490970D01*
X317913Y490978D01*
X318014Y490982D01*
X318114Y490982D01*
X318215Y490978D01*
X318315Y490970D01*
X318415Y490958D01*
X318515Y490943D01*
X318614Y490923D01*
X318712Y490900D01*
X318809Y490873D01*
X318904Y490842D01*
X318999Y490808D01*
X319092Y490770D01*
X319184Y490728D01*
X319274Y490683D01*
X319362Y490634D01*
X319448Y490582D01*
X319532Y490527D01*
X319614Y490468D01*
X319694Y490407D01*
X319771Y490342D01*
X319845Y490274D01*
X319917Y490204D01*
X319986Y490131D01*
X320053Y490055D01*
X320116Y489976D01*
X320176Y489896D01*
X320233Y489813D01*
X320287Y489727D01*
X320337Y489640D01*
X320384Y489551D01*
X320427Y489460D01*
X320467Y489368D01*
X320503Y489274D01*
X320536Y489179D01*
X320565Y489082D01*
X320590Y488985D01*
X320611Y488886D01*
X320629Y488787D01*
X320642Y488687D01*
X320652Y488587D01*
X320658Y488487D01*
X320660Y488386D01*
X320661Y488386D02*
X320661Y485789D01*
X294132Y403211D02*
X294132Y400614D01*
X294130Y400515D01*
X294124Y400415D01*
X294115Y400316D01*
X294102Y400218D01*
X294085Y400120D01*
X294064Y400022D01*
X294039Y399926D01*
X294011Y399831D01*
X293979Y399737D01*
X293944Y399644D01*
X293905Y399552D01*
X293862Y399462D01*
X293817Y399374D01*
X293767Y399287D01*
X293715Y399203D01*
X293659Y399120D01*
X293601Y399040D01*
X293539Y398962D01*
X293474Y398887D01*
X293406Y398814D01*
X293336Y398744D01*
X293263Y398676D01*
X293188Y398611D01*
X293110Y398549D01*
X293030Y398491D01*
X292947Y398435D01*
X292863Y398383D01*
X292776Y398333D01*
X292688Y398288D01*
X292598Y398245D01*
X292506Y398206D01*
X292413Y398171D01*
X292319Y398139D01*
X292224Y398111D01*
X292128Y398086D01*
X292030Y398065D01*
X291932Y398048D01*
X291834Y398035D01*
X291735Y398026D01*
X291635Y398020D01*
X291536Y398018D01*
X285044Y398018D01*
X284945Y398020D01*
X284845Y398026D01*
X284746Y398035D01*
X284648Y398048D01*
X284550Y398066D01*
X284452Y398086D01*
X284356Y398111D01*
X284260Y398139D01*
X284166Y398171D01*
X284073Y398206D01*
X283982Y398245D01*
X283892Y398288D01*
X283803Y398333D01*
X283717Y398383D01*
X283632Y398435D01*
X283550Y398491D01*
X283470Y398550D01*
X283392Y398611D01*
X283316Y398676D01*
X283243Y398744D01*
X283173Y398814D01*
X283105Y398887D01*
X283040Y398963D01*
X282979Y399041D01*
X282920Y399121D01*
X282864Y399203D01*
X282812Y399288D01*
X282763Y399374D01*
X282717Y399463D01*
X282674Y399553D01*
X282635Y399644D01*
X282600Y399737D01*
X282568Y399831D01*
X282540Y399927D01*
X282515Y400023D01*
X282495Y400121D01*
X282477Y400219D01*
X282464Y400317D01*
X282455Y400416D01*
X282449Y400515D01*
X282447Y400615D01*
X282448Y400614D02*
X282448Y403211D01*
X282448Y410173D02*
X291536Y407576D01*
X291536Y414067D01*
X288939Y412120D02*
X294132Y412120D01*
X174752Y490229D02*
X174752Y492826D01*
X174752Y490229D02*
X174750Y490130D01*
X174744Y490030D01*
X174735Y489931D01*
X174722Y489833D01*
X174705Y489735D01*
X174684Y489637D01*
X174659Y489541D01*
X174631Y489446D01*
X174599Y489352D01*
X174564Y489259D01*
X174525Y489167D01*
X174482Y489077D01*
X174437Y488989D01*
X174387Y488902D01*
X174335Y488818D01*
X174279Y488735D01*
X174221Y488655D01*
X174159Y488577D01*
X174094Y488502D01*
X174026Y488429D01*
X173956Y488359D01*
X173883Y488291D01*
X173808Y488226D01*
X173730Y488164D01*
X173650Y488106D01*
X173567Y488050D01*
X173483Y487998D01*
X173396Y487948D01*
X173308Y487903D01*
X173218Y487860D01*
X173126Y487821D01*
X173033Y487786D01*
X172939Y487754D01*
X172844Y487726D01*
X172748Y487701D01*
X172650Y487680D01*
X172552Y487663D01*
X172454Y487650D01*
X172355Y487641D01*
X172255Y487635D01*
X172156Y487633D01*
X165664Y487633D01*
X165664Y487632D02*
X165565Y487634D01*
X165465Y487640D01*
X165366Y487649D01*
X165268Y487662D01*
X165170Y487680D01*
X165072Y487700D01*
X164976Y487725D01*
X164880Y487753D01*
X164786Y487785D01*
X164693Y487820D01*
X164602Y487859D01*
X164512Y487902D01*
X164423Y487947D01*
X164337Y487997D01*
X164252Y488049D01*
X164170Y488105D01*
X164090Y488164D01*
X164012Y488225D01*
X163936Y488290D01*
X163863Y488358D01*
X163793Y488428D01*
X163725Y488501D01*
X163660Y488577D01*
X163599Y488655D01*
X163540Y488735D01*
X163484Y488817D01*
X163432Y488902D01*
X163383Y488988D01*
X163337Y489077D01*
X163294Y489167D01*
X163255Y489258D01*
X163220Y489351D01*
X163188Y489445D01*
X163160Y489541D01*
X163135Y489637D01*
X163115Y489735D01*
X163097Y489833D01*
X163084Y489931D01*
X163075Y490030D01*
X163069Y490129D01*
X163067Y490229D01*
X163068Y490229D02*
X163068Y492826D01*
X174752Y497191D02*
X174752Y501086D01*
X174750Y501185D01*
X174744Y501285D01*
X174735Y501384D01*
X174722Y501482D01*
X174705Y501580D01*
X174684Y501678D01*
X174659Y501774D01*
X174631Y501869D01*
X174599Y501963D01*
X174564Y502056D01*
X174525Y502148D01*
X174482Y502238D01*
X174437Y502326D01*
X174387Y502413D01*
X174335Y502497D01*
X174279Y502580D01*
X174221Y502660D01*
X174159Y502738D01*
X174094Y502813D01*
X174026Y502886D01*
X173956Y502956D01*
X173883Y503024D01*
X173808Y503089D01*
X173730Y503151D01*
X173650Y503209D01*
X173567Y503265D01*
X173483Y503317D01*
X173396Y503367D01*
X173308Y503412D01*
X173218Y503455D01*
X173126Y503494D01*
X173033Y503529D01*
X172939Y503561D01*
X172844Y503589D01*
X172748Y503614D01*
X172650Y503635D01*
X172552Y503652D01*
X172454Y503665D01*
X172355Y503674D01*
X172255Y503680D01*
X172156Y503682D01*
X170857Y503682D01*
X170758Y503680D01*
X170658Y503674D01*
X170559Y503665D01*
X170461Y503652D01*
X170363Y503635D01*
X170265Y503614D01*
X170169Y503589D01*
X170074Y503561D01*
X169980Y503529D01*
X169887Y503494D01*
X169795Y503455D01*
X169705Y503412D01*
X169617Y503367D01*
X169530Y503317D01*
X169446Y503265D01*
X169363Y503209D01*
X169283Y503151D01*
X169205Y503089D01*
X169130Y503024D01*
X169057Y502956D01*
X168987Y502886D01*
X168919Y502813D01*
X168854Y502738D01*
X168792Y502660D01*
X168734Y502580D01*
X168678Y502497D01*
X168626Y502413D01*
X168576Y502326D01*
X168531Y502238D01*
X168488Y502148D01*
X168449Y502056D01*
X168414Y501963D01*
X168382Y501869D01*
X168354Y501774D01*
X168329Y501678D01*
X168308Y501580D01*
X168291Y501482D01*
X168278Y501384D01*
X168269Y501285D01*
X168263Y501185D01*
X168261Y501086D01*
X168261Y497191D01*
X163068Y497191D01*
X163068Y503682D01*
D11*
X187450Y295150D02*
X117350Y295150D01*
X117350Y365250D01*
X183900Y365250D01*
X187450Y361700D02*
X187450Y295150D01*
X187450Y361700D02*
X183900Y365250D01*
X176240Y357632D02*
X176242Y357751D01*
X176248Y357871D01*
X176258Y357990D01*
X176272Y358108D01*
X176290Y358226D01*
X176311Y358344D01*
X176337Y358460D01*
X176366Y358576D01*
X176400Y358691D01*
X176437Y358804D01*
X176478Y358916D01*
X176522Y359027D01*
X176570Y359137D01*
X176622Y359244D01*
X176677Y359350D01*
X176736Y359454D01*
X176799Y359556D01*
X176864Y359655D01*
X176933Y359753D01*
X177005Y359848D01*
X177080Y359941D01*
X177159Y360031D01*
X177240Y360119D01*
X177324Y360203D01*
X177411Y360285D01*
X177500Y360364D01*
X177592Y360440D01*
X177687Y360513D01*
X177784Y360583D01*
X177883Y360649D01*
X177985Y360712D01*
X178088Y360772D01*
X178193Y360828D01*
X178300Y360881D01*
X178409Y360930D01*
X178520Y360976D01*
X178632Y361017D01*
X178745Y361055D01*
X178859Y361090D01*
X178975Y361120D01*
X179091Y361147D01*
X179208Y361169D01*
X179326Y361188D01*
X179445Y361203D01*
X179564Y361214D01*
X179683Y361221D01*
X179802Y361224D01*
X179922Y361223D01*
X180041Y361218D01*
X180160Y361209D01*
X180279Y361196D01*
X180397Y361179D01*
X180514Y361159D01*
X180631Y361134D01*
X180747Y361105D01*
X180862Y361073D01*
X180976Y361037D01*
X181089Y360997D01*
X181200Y360953D01*
X181309Y360906D01*
X181417Y360855D01*
X181524Y360801D01*
X181628Y360743D01*
X181730Y360681D01*
X181831Y360617D01*
X181929Y360548D01*
X182025Y360477D01*
X182118Y360403D01*
X182209Y360325D01*
X182297Y360245D01*
X182382Y360161D01*
X182465Y360075D01*
X182545Y359986D01*
X182622Y359895D01*
X182695Y359801D01*
X182766Y359704D01*
X182833Y359606D01*
X182897Y359505D01*
X182958Y359402D01*
X183015Y359297D01*
X183068Y359191D01*
X183118Y359082D01*
X183165Y358972D01*
X183207Y358861D01*
X183246Y358748D01*
X183282Y358634D01*
X183313Y358518D01*
X183340Y358402D01*
X183364Y358285D01*
X183384Y358167D01*
X183400Y358049D01*
X183412Y357930D01*
X183420Y357811D01*
X183424Y357692D01*
X183424Y357572D01*
X183420Y357453D01*
X183412Y357334D01*
X183400Y357215D01*
X183384Y357097D01*
X183364Y356979D01*
X183340Y356862D01*
X183313Y356746D01*
X183282Y356630D01*
X183246Y356516D01*
X183207Y356403D01*
X183165Y356292D01*
X183118Y356182D01*
X183068Y356073D01*
X183015Y355967D01*
X182958Y355862D01*
X182897Y355759D01*
X182833Y355658D01*
X182766Y355560D01*
X182695Y355463D01*
X182622Y355369D01*
X182545Y355278D01*
X182465Y355189D01*
X182382Y355103D01*
X182297Y355019D01*
X182209Y354939D01*
X182118Y354861D01*
X182025Y354787D01*
X181929Y354716D01*
X181831Y354647D01*
X181730Y354583D01*
X181628Y354521D01*
X181524Y354463D01*
X181417Y354409D01*
X181309Y354358D01*
X181200Y354311D01*
X181089Y354267D01*
X180976Y354227D01*
X180862Y354191D01*
X180747Y354159D01*
X180631Y354130D01*
X180514Y354105D01*
X180397Y354085D01*
X180279Y354068D01*
X180160Y354055D01*
X180041Y354046D01*
X179922Y354041D01*
X179802Y354040D01*
X179683Y354043D01*
X179564Y354050D01*
X179445Y354061D01*
X179326Y354076D01*
X179208Y354095D01*
X179091Y354117D01*
X178975Y354144D01*
X178859Y354174D01*
X178745Y354209D01*
X178632Y354247D01*
X178520Y354288D01*
X178409Y354334D01*
X178300Y354383D01*
X178193Y354436D01*
X178088Y354492D01*
X177985Y354552D01*
X177883Y354615D01*
X177784Y354681D01*
X177687Y354751D01*
X177592Y354824D01*
X177500Y354900D01*
X177411Y354979D01*
X177324Y355061D01*
X177240Y355145D01*
X177159Y355233D01*
X177080Y355323D01*
X177005Y355416D01*
X176933Y355511D01*
X176864Y355609D01*
X176799Y355708D01*
X176736Y355810D01*
X176677Y355914D01*
X176622Y356020D01*
X176570Y356127D01*
X176522Y356237D01*
X176478Y356348D01*
X176437Y356460D01*
X176400Y356573D01*
X176366Y356688D01*
X176337Y356804D01*
X176311Y356920D01*
X176290Y357038D01*
X176272Y357156D01*
X176258Y357274D01*
X176248Y357393D01*
X176242Y357513D01*
X176240Y357632D01*
D12*
X203581Y343511D02*
X210947Y343511D01*
X210947Y344329D02*
X210947Y342692D01*
X203581Y342692D02*
X203581Y344329D01*
X210947Y348931D02*
X210947Y350567D01*
X210947Y348931D02*
X210945Y348853D01*
X210940Y348775D01*
X210930Y348698D01*
X210917Y348621D01*
X210901Y348545D01*
X210881Y348470D01*
X210857Y348396D01*
X210830Y348323D01*
X210799Y348251D01*
X210765Y348181D01*
X210728Y348113D01*
X210687Y348046D01*
X210643Y347981D01*
X210597Y347919D01*
X210547Y347859D01*
X210495Y347801D01*
X210440Y347746D01*
X210382Y347694D01*
X210322Y347644D01*
X210260Y347598D01*
X210195Y347554D01*
X210129Y347513D01*
X210060Y347476D01*
X209990Y347442D01*
X209918Y347411D01*
X209845Y347384D01*
X209771Y347360D01*
X209696Y347340D01*
X209620Y347324D01*
X209543Y347311D01*
X209466Y347301D01*
X209388Y347296D01*
X209310Y347294D01*
X205218Y347294D01*
X205138Y347296D01*
X205058Y347302D01*
X204978Y347312D01*
X204899Y347325D01*
X204820Y347343D01*
X204743Y347364D01*
X204667Y347390D01*
X204592Y347419D01*
X204518Y347451D01*
X204446Y347487D01*
X204376Y347527D01*
X204309Y347570D01*
X204243Y347616D01*
X204180Y347666D01*
X204119Y347718D01*
X204060Y347773D01*
X204005Y347832D01*
X203953Y347892D01*
X203903Y347956D01*
X203857Y348021D01*
X203814Y348089D01*
X203774Y348159D01*
X203738Y348231D01*
X203706Y348305D01*
X203677Y348379D01*
X203652Y348456D01*
X203630Y348533D01*
X203612Y348612D01*
X203599Y348691D01*
X203589Y348770D01*
X203583Y348851D01*
X203581Y348931D01*
X203581Y350567D01*
X205218Y353413D02*
X203581Y355459D01*
X210947Y355459D01*
X210947Y353413D02*
X210947Y357505D01*
D13*
X180044Y612577D02*
X180044Y616331D01*
X180043Y612577D02*
X180041Y612512D01*
X180035Y612448D01*
X180025Y612384D01*
X180012Y612320D01*
X179994Y612258D01*
X179973Y612197D01*
X179949Y612137D01*
X179920Y612079D01*
X179888Y612022D01*
X179853Y611968D01*
X179815Y611916D01*
X179773Y611866D01*
X179729Y611819D01*
X179682Y611775D01*
X179632Y611733D01*
X179580Y611695D01*
X179526Y611660D01*
X179469Y611628D01*
X179411Y611599D01*
X179351Y611575D01*
X179290Y611554D01*
X179228Y611536D01*
X179164Y611523D01*
X179100Y611513D01*
X179036Y611507D01*
X178971Y611505D01*
X178435Y611505D01*
X182992Y615259D02*
X184332Y616331D01*
X184332Y611505D01*
X182992Y611505D02*
X185673Y611505D01*
D11*
X393700Y234950D02*
X387350Y228600D01*
X393700Y247650D02*
X387350Y254000D01*
X393700Y260350D01*
X393700Y273050D02*
X387350Y279400D01*
X387350Y228600D02*
X349250Y228600D01*
X342900Y234950D01*
X342900Y247650D01*
X349250Y254000D01*
X342900Y260350D01*
X342900Y273050D01*
X349250Y279400D01*
X349250Y254000D02*
X387350Y254000D01*
X387350Y279400D02*
X349250Y279400D01*
X393700Y273050D02*
X393700Y260350D01*
X393700Y247650D02*
X393700Y234950D01*
X387350Y279400D02*
X393700Y285750D01*
X393700Y298450D02*
X387350Y304800D01*
X349250Y279400D02*
X342900Y285750D01*
X342900Y298450D01*
X349250Y304800D01*
X387350Y304800D01*
X393700Y298450D02*
X393700Y285750D01*
D13*
X333375Y233045D02*
X324485Y233045D01*
X333375Y233045D02*
X333475Y233043D01*
X333574Y233037D01*
X333674Y233027D01*
X333772Y233014D01*
X333871Y232996D01*
X333968Y232975D01*
X334064Y232950D01*
X334160Y232921D01*
X334254Y232888D01*
X334347Y232852D01*
X334438Y232812D01*
X334528Y232768D01*
X334616Y232721D01*
X334702Y232671D01*
X334786Y232617D01*
X334868Y232560D01*
X334947Y232500D01*
X335025Y232436D01*
X335099Y232370D01*
X335171Y232301D01*
X335240Y232229D01*
X335306Y232155D01*
X335370Y232077D01*
X335430Y231998D01*
X335487Y231916D01*
X335541Y231832D01*
X335591Y231746D01*
X335638Y231658D01*
X335682Y231568D01*
X335722Y231477D01*
X335758Y231384D01*
X335791Y231290D01*
X335820Y231194D01*
X335845Y231098D01*
X335866Y231001D01*
X335884Y230902D01*
X335897Y230804D01*
X335907Y230704D01*
X335913Y230605D01*
X335915Y230505D01*
X335915Y229235D01*
X335915Y239025D02*
X324485Y239025D01*
X324485Y242200D01*
X324487Y242311D01*
X324493Y242421D01*
X324502Y242532D01*
X324516Y242642D01*
X324533Y242751D01*
X324554Y242860D01*
X324579Y242968D01*
X324608Y243075D01*
X324640Y243181D01*
X324676Y243286D01*
X324716Y243389D01*
X324759Y243491D01*
X324806Y243592D01*
X324857Y243691D01*
X324910Y243788D01*
X324967Y243882D01*
X325028Y243975D01*
X325091Y244066D01*
X325158Y244155D01*
X325228Y244241D01*
X325301Y244324D01*
X325376Y244406D01*
X325454Y244484D01*
X325536Y244559D01*
X325619Y244632D01*
X325705Y244702D01*
X325794Y244769D01*
X325885Y244832D01*
X325978Y244893D01*
X326073Y244950D01*
X326169Y245003D01*
X326268Y245054D01*
X326369Y245101D01*
X326471Y245144D01*
X326574Y245184D01*
X326679Y245220D01*
X326785Y245252D01*
X326892Y245281D01*
X327000Y245306D01*
X327109Y245327D01*
X327218Y245344D01*
X327328Y245358D01*
X327439Y245367D01*
X327549Y245373D01*
X327660Y245375D01*
X327771Y245373D01*
X327881Y245367D01*
X327992Y245358D01*
X328102Y245344D01*
X328211Y245327D01*
X328320Y245306D01*
X328428Y245281D01*
X328535Y245252D01*
X328641Y245220D01*
X328746Y245184D01*
X328849Y245144D01*
X328951Y245101D01*
X329052Y245054D01*
X329151Y245003D01*
X329248Y244950D01*
X329342Y244893D01*
X329435Y244832D01*
X329526Y244769D01*
X329615Y244702D01*
X329701Y244632D01*
X329784Y244559D01*
X329866Y244484D01*
X329944Y244406D01*
X330019Y244324D01*
X330092Y244241D01*
X330162Y244155D01*
X330229Y244066D01*
X330292Y243975D01*
X330353Y243882D01*
X330410Y243788D01*
X330463Y243691D01*
X330514Y243592D01*
X330561Y243491D01*
X330604Y243389D01*
X330644Y243286D01*
X330680Y243181D01*
X330712Y243075D01*
X330741Y242968D01*
X330766Y242860D01*
X330787Y242751D01*
X330804Y242642D01*
X330818Y242532D01*
X330827Y242421D01*
X330833Y242311D01*
X330835Y242200D01*
X330835Y239025D01*
X327025Y249884D02*
X324485Y253059D01*
X335915Y253059D01*
X335915Y249884D02*
X335915Y256234D01*
D14*
X38085Y502614D03*
X38085Y487882D03*
D10*
X27432Y488188D02*
X15748Y488188D01*
X15748Y491434D01*
X15750Y491547D01*
X15756Y491660D01*
X15766Y491773D01*
X15780Y491886D01*
X15797Y491998D01*
X15819Y492109D01*
X15844Y492219D01*
X15874Y492329D01*
X15907Y492437D01*
X15944Y492544D01*
X15984Y492650D01*
X16029Y492754D01*
X16077Y492857D01*
X16128Y492958D01*
X16183Y493057D01*
X16241Y493154D01*
X16303Y493249D01*
X16368Y493342D01*
X16436Y493432D01*
X16507Y493520D01*
X16582Y493606D01*
X16659Y493689D01*
X16739Y493769D01*
X16822Y493846D01*
X16908Y493921D01*
X16996Y493992D01*
X17086Y494060D01*
X17179Y494125D01*
X17274Y494187D01*
X17371Y494245D01*
X17470Y494300D01*
X17571Y494351D01*
X17674Y494399D01*
X17778Y494444D01*
X17884Y494484D01*
X17991Y494521D01*
X18099Y494554D01*
X18209Y494584D01*
X18319Y494609D01*
X18430Y494631D01*
X18542Y494648D01*
X18655Y494662D01*
X18768Y494672D01*
X18881Y494678D01*
X18994Y494680D01*
X19107Y494678D01*
X19220Y494672D01*
X19333Y494662D01*
X19446Y494648D01*
X19558Y494631D01*
X19669Y494609D01*
X19779Y494584D01*
X19889Y494554D01*
X19997Y494521D01*
X20104Y494484D01*
X20210Y494444D01*
X20314Y494399D01*
X20417Y494351D01*
X20518Y494300D01*
X20617Y494245D01*
X20714Y494187D01*
X20809Y494125D01*
X20902Y494060D01*
X20992Y493992D01*
X21080Y493921D01*
X21166Y493846D01*
X21249Y493769D01*
X21329Y493689D01*
X21406Y493606D01*
X21481Y493520D01*
X21552Y493432D01*
X21620Y493342D01*
X21685Y493249D01*
X21747Y493154D01*
X21805Y493057D01*
X21860Y492958D01*
X21911Y492857D01*
X21959Y492754D01*
X22004Y492650D01*
X22044Y492544D01*
X22081Y492437D01*
X22114Y492329D01*
X22144Y492219D01*
X22169Y492109D01*
X22191Y491998D01*
X22208Y491886D01*
X22222Y491773D01*
X22232Y491660D01*
X22238Y491547D01*
X22240Y491434D01*
X22239Y491434D02*
X22239Y488188D01*
X22239Y492083D02*
X27432Y494679D01*
X18344Y499544D02*
X15748Y502790D01*
X27432Y502790D01*
X27432Y506035D02*
X27432Y499544D01*
D13*
X110500Y165300D02*
X110500Y162300D01*
X110500Y190300D02*
X110500Y193300D01*
X143500Y193300D02*
X143500Y190300D01*
X143500Y165300D02*
X143500Y162300D01*
X140500Y162300D01*
X114000Y162300D02*
X110500Y162300D01*
X110500Y193300D02*
X113500Y193300D01*
X140500Y193300D02*
X143500Y193300D01*
D15*
X146500Y159300D03*
D13*
X119806Y157165D02*
X119806Y150744D01*
X119807Y150744D02*
X119809Y150646D01*
X119815Y150548D01*
X119825Y150450D01*
X119838Y150353D01*
X119856Y150256D01*
X119877Y150160D01*
X119902Y150066D01*
X119931Y149972D01*
X119963Y149879D01*
X120000Y149788D01*
X120039Y149698D01*
X120083Y149610D01*
X120130Y149524D01*
X120180Y149439D01*
X120233Y149357D01*
X120290Y149277D01*
X120350Y149199D01*
X120413Y149124D01*
X120479Y149051D01*
X120548Y148981D01*
X120619Y148914D01*
X120693Y148849D01*
X120770Y148788D01*
X120849Y148729D01*
X120930Y148674D01*
X121013Y148622D01*
X121099Y148574D01*
X121186Y148529D01*
X121275Y148487D01*
X121365Y148449D01*
X121457Y148415D01*
X121550Y148384D01*
X121645Y148357D01*
X121740Y148334D01*
X121837Y148314D01*
X121933Y148299D01*
X122031Y148287D01*
X122129Y148279D01*
X122227Y148275D01*
X122325Y148275D01*
X122423Y148279D01*
X122521Y148287D01*
X122619Y148299D01*
X122715Y148314D01*
X122812Y148334D01*
X122907Y148357D01*
X123002Y148384D01*
X123095Y148415D01*
X123187Y148449D01*
X123277Y148487D01*
X123366Y148529D01*
X123453Y148574D01*
X123539Y148622D01*
X123622Y148674D01*
X123703Y148729D01*
X123782Y148788D01*
X123859Y148849D01*
X123933Y148914D01*
X124004Y148981D01*
X124073Y149051D01*
X124139Y149124D01*
X124202Y149199D01*
X124262Y149277D01*
X124319Y149357D01*
X124372Y149439D01*
X124422Y149524D01*
X124469Y149610D01*
X124513Y149698D01*
X124552Y149788D01*
X124589Y149879D01*
X124621Y149972D01*
X124650Y150066D01*
X124675Y150160D01*
X124696Y150256D01*
X124714Y150353D01*
X124727Y150450D01*
X124737Y150548D01*
X124743Y150646D01*
X124745Y150744D01*
X124745Y157165D01*
X129255Y155189D02*
X131724Y157165D01*
X131724Y148275D01*
X129255Y148275D02*
X134194Y148275D01*
D16*
X401321Y478790D02*
X401315Y479284D01*
X401297Y479778D01*
X401267Y480272D01*
X401225Y480765D01*
X401171Y481256D01*
X401105Y481746D01*
X401027Y482235D01*
X400937Y482721D01*
X400835Y483205D01*
X400722Y483686D01*
X400597Y484165D01*
X400461Y484640D01*
X400312Y485112D01*
X400153Y485580D01*
X399982Y486044D01*
X399800Y486503D01*
X399607Y486959D01*
X399402Y487409D01*
X399187Y487854D01*
X398961Y488294D01*
X398724Y488728D01*
X398477Y489156D01*
X398220Y489579D01*
X397952Y489994D01*
X397675Y490404D01*
X397387Y490806D01*
X397090Y491201D01*
X396783Y491589D01*
X396467Y491969D01*
X396142Y492342D01*
X395807Y492706D01*
X395464Y493062D01*
X395113Y493410D01*
X394753Y493749D01*
X394385Y494079D01*
X394009Y494400D01*
X393625Y494712D01*
X393234Y495015D01*
X392835Y495308D01*
X392430Y495591D01*
D11*
X392430Y501650D02*
X402590Y501650D01*
D16*
X401320Y410210D02*
X401314Y409716D01*
X401296Y409222D01*
X401266Y408728D01*
X401224Y408236D01*
X401170Y407744D01*
X401104Y407254D01*
X401026Y406766D01*
X400936Y406279D01*
X400835Y405796D01*
X400721Y405314D01*
X400596Y404836D01*
X400460Y404361D01*
X400312Y403889D01*
X400152Y403421D01*
X399981Y402957D01*
X399799Y402497D01*
X399606Y402042D01*
X399402Y401591D01*
X399187Y401146D01*
X398961Y400706D01*
X398724Y400272D01*
X398477Y399844D01*
X398220Y399422D01*
X397952Y399006D01*
X397674Y398597D01*
X397387Y398194D01*
X397090Y397799D01*
X396783Y397411D01*
X396467Y397031D01*
X396141Y396659D01*
X395807Y396294D01*
X395464Y395938D01*
X395113Y395590D01*
X394753Y395251D01*
X394385Y394921D01*
X394009Y394600D01*
X393625Y394288D01*
X393234Y393985D01*
X392835Y393693D01*
X392430Y393409D01*
D11*
X392430Y387350D02*
X402590Y387350D01*
D16*
X368300Y410210D02*
X368300Y478790D01*
X360680Y478790D02*
X360680Y410210D01*
X393700Y410210D02*
X393700Y478790D01*
D11*
X356870Y499110D02*
X356870Y389890D01*
X356872Y389790D01*
X356878Y389691D01*
X356888Y389591D01*
X356901Y389493D01*
X356919Y389394D01*
X356940Y389297D01*
X356965Y389201D01*
X356994Y389105D01*
X357027Y389011D01*
X357063Y388918D01*
X357103Y388827D01*
X357147Y388737D01*
X357194Y388649D01*
X357244Y388563D01*
X357298Y388479D01*
X357355Y388397D01*
X357415Y388318D01*
X357479Y388240D01*
X357545Y388166D01*
X357614Y388094D01*
X357686Y388025D01*
X357760Y387959D01*
X357838Y387895D01*
X357917Y387835D01*
X357999Y387778D01*
X358083Y387724D01*
X358169Y387674D01*
X358257Y387627D01*
X358347Y387583D01*
X358438Y387543D01*
X358531Y387507D01*
X358625Y387474D01*
X358721Y387445D01*
X358817Y387420D01*
X358914Y387399D01*
X359013Y387381D01*
X359111Y387368D01*
X359211Y387358D01*
X359310Y387352D01*
X359410Y387350D01*
X369570Y387350D01*
D16*
X369570Y404674D02*
X369442Y404947D01*
X369320Y405223D01*
X369205Y405502D01*
X369097Y405783D01*
X368995Y406067D01*
X368900Y406353D01*
X368812Y406641D01*
X368730Y406931D01*
X368656Y407224D01*
X368589Y407517D01*
X368528Y407813D01*
X368475Y408109D01*
X368429Y408407D01*
X368389Y408706D01*
X368357Y409006D01*
X368332Y409307D01*
X368314Y409607D01*
X368304Y409909D01*
X368300Y410210D01*
X392430Y404674D02*
X392558Y404947D01*
X392680Y405223D01*
X392795Y405502D01*
X392903Y405783D01*
X393005Y406067D01*
X393100Y406353D01*
X393188Y406641D01*
X393270Y406931D01*
X393344Y407224D01*
X393411Y407517D01*
X393472Y407813D01*
X393525Y408109D01*
X393571Y408407D01*
X393611Y408706D01*
X393643Y409006D01*
X393668Y409307D01*
X393686Y409607D01*
X393696Y409909D01*
X393700Y410210D01*
X369571Y393410D02*
X369166Y393693D01*
X368767Y393986D01*
X368376Y394288D01*
X367992Y394600D01*
X367616Y394921D01*
X367248Y395251D01*
X366888Y395590D01*
X366537Y395938D01*
X366194Y396294D01*
X365859Y396659D01*
X365534Y397031D01*
X365218Y397411D01*
X364911Y397799D01*
X364614Y398194D01*
X364326Y398597D01*
X364049Y399006D01*
X363781Y399421D01*
X363524Y399844D01*
X363277Y400272D01*
X363040Y400706D01*
X362814Y401146D01*
X362599Y401591D01*
X362395Y402041D01*
X362201Y402497D01*
X362019Y402956D01*
X361848Y403420D01*
X361689Y403888D01*
X361541Y404360D01*
X361404Y404835D01*
X361279Y405314D01*
X361166Y405795D01*
X361064Y406279D01*
X360974Y406765D01*
X360896Y407253D01*
X360830Y407743D01*
X360776Y408235D01*
X360734Y408728D01*
X360704Y409221D01*
X360686Y409715D01*
X360680Y410210D01*
X360680Y478790D02*
X360686Y479284D01*
X360704Y479778D01*
X360734Y480272D01*
X360776Y480764D01*
X360830Y481256D01*
X360896Y481746D01*
X360974Y482234D01*
X361064Y482721D01*
X361165Y483204D01*
X361279Y483686D01*
X361404Y484164D01*
X361540Y484639D01*
X361688Y485111D01*
X361848Y485579D01*
X362019Y486043D01*
X362201Y486503D01*
X362394Y486958D01*
X362598Y487409D01*
X362813Y487854D01*
X363039Y488294D01*
X363276Y488728D01*
X363523Y489156D01*
X363780Y489578D01*
X364048Y489994D01*
X364326Y490403D01*
X364613Y490806D01*
X364910Y491201D01*
X365217Y491589D01*
X365533Y491969D01*
X365859Y492341D01*
X366193Y492706D01*
X366536Y493062D01*
X366887Y493410D01*
X367247Y493749D01*
X367615Y494079D01*
X367991Y494400D01*
X368375Y494712D01*
X368766Y495015D01*
X369165Y495307D01*
X369570Y495591D01*
X369570Y484326D02*
X369442Y484053D01*
X369320Y483777D01*
X369205Y483498D01*
X369097Y483217D01*
X368995Y482933D01*
X368900Y482647D01*
X368812Y482359D01*
X368730Y482069D01*
X368656Y481776D01*
X368589Y481483D01*
X368528Y481187D01*
X368475Y480891D01*
X368429Y480593D01*
X368389Y480294D01*
X368357Y479994D01*
X368332Y479693D01*
X368314Y479393D01*
X368304Y479091D01*
X368300Y478790D01*
X392430Y484326D02*
X392558Y484053D01*
X392680Y483777D01*
X392795Y483498D01*
X392903Y483217D01*
X393005Y482933D01*
X393100Y482647D01*
X393188Y482359D01*
X393270Y482069D01*
X393344Y481776D01*
X393411Y481483D01*
X393472Y481187D01*
X393525Y480891D01*
X393571Y480593D01*
X393611Y480294D01*
X393643Y479994D01*
X393668Y479693D01*
X393686Y479393D01*
X393696Y479091D01*
X393700Y478790D01*
D11*
X369570Y501650D02*
X359410Y501650D01*
X359310Y501648D01*
X359211Y501642D01*
X359111Y501632D01*
X359013Y501619D01*
X358914Y501601D01*
X358817Y501580D01*
X358721Y501555D01*
X358625Y501526D01*
X358531Y501493D01*
X358438Y501457D01*
X358347Y501417D01*
X358257Y501373D01*
X358169Y501326D01*
X358083Y501276D01*
X357999Y501222D01*
X357917Y501165D01*
X357838Y501105D01*
X357760Y501041D01*
X357686Y500975D01*
X357614Y500906D01*
X357545Y500834D01*
X357479Y500760D01*
X357415Y500682D01*
X357355Y500603D01*
X357298Y500521D01*
X357244Y500437D01*
X357194Y500351D01*
X357147Y500263D01*
X357103Y500173D01*
X357063Y500082D01*
X357027Y499989D01*
X356994Y499895D01*
X356965Y499799D01*
X356940Y499703D01*
X356919Y499606D01*
X356901Y499507D01*
X356888Y499409D01*
X356878Y499309D01*
X356872Y499210D01*
X356870Y499110D01*
D16*
X401320Y478790D02*
X401320Y410210D01*
D11*
X405130Y389890D02*
X405130Y499110D01*
X405130Y389890D02*
X405128Y389790D01*
X405122Y389691D01*
X405112Y389591D01*
X405099Y389493D01*
X405081Y389394D01*
X405060Y389297D01*
X405035Y389201D01*
X405006Y389105D01*
X404973Y389011D01*
X404937Y388918D01*
X404897Y388827D01*
X404853Y388737D01*
X404806Y388649D01*
X404756Y388563D01*
X404702Y388479D01*
X404645Y388397D01*
X404585Y388318D01*
X404521Y388240D01*
X404455Y388166D01*
X404386Y388094D01*
X404314Y388025D01*
X404240Y387959D01*
X404162Y387895D01*
X404083Y387835D01*
X404001Y387778D01*
X403917Y387724D01*
X403831Y387674D01*
X403743Y387627D01*
X403653Y387583D01*
X403562Y387543D01*
X403469Y387507D01*
X403375Y387474D01*
X403279Y387445D01*
X403183Y387420D01*
X403086Y387399D01*
X402987Y387381D01*
X402889Y387368D01*
X402789Y387358D01*
X402690Y387352D01*
X402590Y387350D01*
X405130Y499110D02*
X405128Y499210D01*
X405122Y499309D01*
X405112Y499409D01*
X405099Y499507D01*
X405081Y499606D01*
X405060Y499703D01*
X405035Y499799D01*
X405006Y499895D01*
X404973Y499989D01*
X404937Y500082D01*
X404897Y500173D01*
X404853Y500263D01*
X404806Y500351D01*
X404756Y500437D01*
X404702Y500521D01*
X404645Y500603D01*
X404585Y500682D01*
X404521Y500760D01*
X404455Y500834D01*
X404386Y500906D01*
X404314Y500975D01*
X404240Y501041D01*
X404162Y501105D01*
X404083Y501165D01*
X404001Y501222D01*
X403917Y501276D01*
X403831Y501326D01*
X403743Y501373D01*
X403653Y501417D01*
X403562Y501457D01*
X403469Y501493D01*
X403375Y501526D01*
X403279Y501555D01*
X403183Y501580D01*
X403086Y501601D01*
X402987Y501619D01*
X402889Y501632D01*
X402789Y501642D01*
X402690Y501648D01*
X402590Y501650D01*
X387350Y447040D02*
X374650Y447040D01*
X374650Y441960D01*
X387350Y441960D01*
X387350Y447040D01*
X387350Y450850D02*
X381000Y450850D01*
X374650Y450850D01*
D16*
X381000Y450850D02*
X381000Y454660D01*
D11*
X381000Y438150D02*
X387350Y438150D01*
X381000Y438150D02*
X374650Y438150D01*
D16*
X381000Y438150D02*
X381000Y434340D01*
D13*
X409575Y469748D02*
X421005Y462128D01*
X421005Y469748D02*
X409575Y462128D01*
X409575Y476606D02*
X421005Y476606D01*
X409575Y473431D02*
X409575Y479781D01*
X409575Y487274D02*
X421005Y483464D01*
X421005Y491084D02*
X409575Y487274D01*
X418148Y490131D02*
X418148Y484416D01*
X421005Y495935D02*
X409575Y495935D01*
X421005Y495935D02*
X421005Y501015D01*
D17*
X411000Y80800D02*
X351000Y80800D01*
X351000Y20800D02*
X411000Y20800D01*
X351000Y40800D02*
X351000Y60800D01*
X411000Y60800D02*
X411000Y40800D01*
D18*
X427000Y30800D03*
D19*
X427002Y30738D01*
X427008Y30677D01*
X427017Y30616D01*
X427030Y30556D01*
X427047Y30497D01*
X427068Y30439D01*
X427092Y30382D01*
X427119Y30327D01*
X427150Y30274D01*
X427184Y30222D01*
X427221Y30173D01*
X427261Y30126D01*
X427304Y30082D01*
X427349Y30041D01*
X427397Y30002D01*
X427448Y29966D01*
X427500Y29934D01*
X427554Y29905D01*
X427610Y29879D01*
X427668Y29857D01*
X427726Y29838D01*
X427786Y29823D01*
X427847Y29812D01*
X427908Y29804D01*
X427969Y29800D01*
X428031Y29800D01*
X428092Y29804D01*
X428153Y29812D01*
X428214Y29823D01*
X428274Y29838D01*
X428332Y29857D01*
X428390Y29879D01*
X428446Y29905D01*
X428500Y29934D01*
X428552Y29966D01*
X428603Y30002D01*
X428651Y30041D01*
X428696Y30082D01*
X428739Y30126D01*
X428779Y30173D01*
X428816Y30222D01*
X428850Y30274D01*
X428881Y30327D01*
X428908Y30382D01*
X428932Y30439D01*
X428953Y30497D01*
X428970Y30556D01*
X428983Y30616D01*
X428992Y30677D01*
X428998Y30738D01*
X429000Y30800D01*
D18*
X429000Y30800D03*
D19*
X428998Y30862D01*
X428992Y30923D01*
X428983Y30984D01*
X428970Y31044D01*
X428953Y31103D01*
X428932Y31161D01*
X428908Y31218D01*
X428881Y31273D01*
X428850Y31326D01*
X428816Y31378D01*
X428779Y31427D01*
X428739Y31474D01*
X428696Y31518D01*
X428651Y31559D01*
X428603Y31598D01*
X428552Y31634D01*
X428500Y31666D01*
X428446Y31695D01*
X428390Y31721D01*
X428332Y31743D01*
X428274Y31762D01*
X428214Y31777D01*
X428153Y31788D01*
X428092Y31796D01*
X428031Y31800D01*
X427969Y31800D01*
X427908Y31796D01*
X427847Y31788D01*
X427786Y31777D01*
X427726Y31762D01*
X427668Y31743D01*
X427610Y31721D01*
X427554Y31695D01*
X427500Y31666D01*
X427448Y31634D01*
X427397Y31598D01*
X427349Y31559D01*
X427304Y31518D01*
X427261Y31474D01*
X427221Y31427D01*
X427184Y31378D01*
X427150Y31326D01*
X427119Y31273D01*
X427092Y31218D01*
X427068Y31161D01*
X427047Y31103D01*
X427030Y31044D01*
X427017Y30984D01*
X427008Y30923D01*
X427002Y30862D01*
X427000Y30800D01*
D10*
X378721Y60254D02*
X378719Y60155D01*
X378713Y60055D01*
X378704Y59956D01*
X378691Y59858D01*
X378674Y59760D01*
X378653Y59662D01*
X378628Y59566D01*
X378600Y59471D01*
X378568Y59377D01*
X378533Y59284D01*
X378494Y59192D01*
X378451Y59102D01*
X378406Y59014D01*
X378356Y58927D01*
X378304Y58843D01*
X378248Y58760D01*
X378190Y58680D01*
X378128Y58602D01*
X378063Y58527D01*
X377995Y58454D01*
X377925Y58384D01*
X377852Y58316D01*
X377777Y58251D01*
X377699Y58189D01*
X377619Y58131D01*
X377536Y58075D01*
X377452Y58023D01*
X377365Y57973D01*
X377277Y57928D01*
X377187Y57885D01*
X377095Y57846D01*
X377002Y57811D01*
X376908Y57779D01*
X376813Y57751D01*
X376717Y57726D01*
X376619Y57705D01*
X376521Y57688D01*
X376423Y57675D01*
X376324Y57666D01*
X376224Y57660D01*
X376125Y57658D01*
X375981Y57660D01*
X375836Y57666D01*
X375692Y57675D01*
X375549Y57688D01*
X375405Y57705D01*
X375262Y57726D01*
X375120Y57751D01*
X374979Y57779D01*
X374838Y57811D01*
X374698Y57847D01*
X374559Y57886D01*
X374421Y57929D01*
X374285Y57976D01*
X374149Y58026D01*
X374015Y58080D01*
X373883Y58137D01*
X373752Y58198D01*
X373623Y58262D01*
X373495Y58330D01*
X373369Y58400D01*
X373245Y58475D01*
X373124Y58552D01*
X373004Y58633D01*
X372886Y58716D01*
X372771Y58803D01*
X372658Y58893D01*
X372547Y58986D01*
X372439Y59081D01*
X372333Y59180D01*
X372230Y59281D01*
X372555Y66746D02*
X372557Y66845D01*
X372563Y66945D01*
X372572Y67044D01*
X372585Y67142D01*
X372602Y67240D01*
X372623Y67338D01*
X372648Y67434D01*
X372676Y67529D01*
X372708Y67623D01*
X372743Y67716D01*
X372782Y67808D01*
X372825Y67898D01*
X372870Y67986D01*
X372920Y68073D01*
X372972Y68157D01*
X373028Y68240D01*
X373086Y68320D01*
X373148Y68398D01*
X373213Y68473D01*
X373281Y68546D01*
X373351Y68616D01*
X373424Y68684D01*
X373499Y68749D01*
X373577Y68811D01*
X373657Y68869D01*
X373740Y68925D01*
X373824Y68977D01*
X373911Y69027D01*
X373999Y69072D01*
X374089Y69115D01*
X374181Y69154D01*
X374274Y69189D01*
X374368Y69221D01*
X374463Y69249D01*
X374560Y69274D01*
X374657Y69295D01*
X374755Y69312D01*
X374853Y69325D01*
X374952Y69334D01*
X375052Y69340D01*
X375151Y69342D01*
X375287Y69340D01*
X375423Y69334D01*
X375559Y69325D01*
X375695Y69312D01*
X375830Y69294D01*
X375964Y69274D01*
X376098Y69249D01*
X376232Y69221D01*
X376364Y69188D01*
X376495Y69153D01*
X376626Y69113D01*
X376755Y69070D01*
X376883Y69024D01*
X377009Y68973D01*
X377135Y68920D01*
X377258Y68862D01*
X377380Y68802D01*
X377500Y68738D01*
X377619Y68670D01*
X377735Y68600D01*
X377849Y68526D01*
X377962Y68449D01*
X378072Y68368D01*
X373852Y64474D02*
X373766Y64527D01*
X373682Y64584D01*
X373600Y64643D01*
X373520Y64706D01*
X373443Y64772D01*
X373368Y64840D01*
X373296Y64912D01*
X373227Y64986D01*
X373161Y65063D01*
X373098Y65142D01*
X373038Y65224D01*
X372981Y65308D01*
X372927Y65394D01*
X372877Y65482D01*
X372830Y65572D01*
X372786Y65663D01*
X372747Y65757D01*
X372710Y65851D01*
X372678Y65947D01*
X372649Y66045D01*
X372624Y66143D01*
X372603Y66242D01*
X372585Y66342D01*
X372572Y66442D01*
X372562Y66543D01*
X372556Y66645D01*
X372554Y66746D01*
X377423Y62526D02*
X377509Y62473D01*
X377593Y62416D01*
X377675Y62357D01*
X377755Y62294D01*
X377832Y62228D01*
X377907Y62160D01*
X377979Y62088D01*
X378048Y62014D01*
X378114Y61937D01*
X378177Y61858D01*
X378237Y61776D01*
X378294Y61692D01*
X378348Y61606D01*
X378398Y61518D01*
X378445Y61428D01*
X378489Y61337D01*
X378528Y61243D01*
X378565Y61149D01*
X378597Y61053D01*
X378626Y60955D01*
X378651Y60857D01*
X378672Y60758D01*
X378690Y60658D01*
X378703Y60558D01*
X378713Y60457D01*
X378719Y60355D01*
X378721Y60254D01*
X377423Y62526D02*
X373853Y64474D01*
X383279Y66746D02*
X386524Y69342D01*
X386524Y57658D01*
X383279Y57658D02*
X389770Y57658D01*
M02*
