G04 EAGLE Gerber RS-274X export*
G75*
%MOMM*%
%FSLAX34Y34*%
%LPD*%
%INSolderpaste Top*%
%IPPOS*%
%AMOC8*
5,1,8,0,0,1.08239X$1,22.5*%
G01*
%ADD10R,1.500000X1.300000*%
%ADD11R,0.558800X1.270000*%
%ADD12R,1.270000X0.558800*%
%ADD13R,1.400000X1.100000*%
%ADD14R,0.925000X0.300000*%
%ADD15R,0.300000X0.800000*%
%ADD16R,1.930400X5.334000*%
%ADD17R,2.750000X1.000000*%
%ADD18R,2.100000X5.050000*%
%ADD19R,5.050000X5.050000*%


D10*
X114300Y503800D03*
X114300Y486800D03*
X76200Y503800D03*
X76200Y486800D03*
X304800Y491100D03*
X304800Y474100D03*
X304800Y397900D03*
X304800Y414900D03*
X152400Y503800D03*
X152400Y486800D03*
D11*
X180400Y373126D03*
X172400Y373126D03*
X164400Y373126D03*
X156400Y373126D03*
X148400Y373126D03*
X140400Y373126D03*
X132400Y373126D03*
X124400Y373126D03*
D12*
X109474Y358200D03*
X109474Y350200D03*
X109474Y342200D03*
X109474Y334200D03*
X109474Y326200D03*
X109474Y318200D03*
X109474Y310200D03*
X109474Y302200D03*
D11*
X124400Y287274D03*
X132400Y287274D03*
X140400Y287274D03*
X148400Y287274D03*
X156400Y287274D03*
X164400Y287274D03*
X172400Y287274D03*
X180400Y287274D03*
D12*
X195326Y302200D03*
X195326Y310200D03*
X195326Y318200D03*
X195326Y326200D03*
X195326Y334200D03*
X195326Y342200D03*
X195326Y350200D03*
X195326Y358200D03*
D13*
X38100Y485300D03*
X38100Y505300D03*
D14*
X139875Y167800D03*
X139875Y172800D03*
X139875Y177800D03*
X139875Y182800D03*
X139875Y187800D03*
D15*
X132000Y190550D03*
X127000Y190550D03*
X122000Y190550D03*
D14*
X114125Y187800D03*
X114125Y182800D03*
X114125Y177800D03*
X114125Y172800D03*
X114125Y167800D03*
D15*
X122000Y165050D03*
X127000Y165050D03*
X132000Y165050D03*
D16*
X381000Y492760D03*
X381000Y396240D03*
D17*
X409750Y30800D03*
X352250Y30800D03*
X409750Y70800D03*
X352250Y70800D03*
D18*
X25400Y38100D03*
X258400Y38100D03*
D19*
X141900Y38100D03*
M02*
